<svg width="25" height="25" viewBox="0 0 25 25" fill="none" xmlns="http://www.w3.org/2000/svg">
<path d="M23.375 19.3839C23.375 19.7754 23.2879 20.1778 23.1028 20.5693C22.9175 20.9608 22.6779 21.3305 22.3621 21.6785C21.8285 22.2658 21.2404 22.6899 20.5759 22.9618C19.9224 23.2336 19.2145 23.375 18.4521 23.375C17.3412 23.375 16.154 23.114 14.9016 22.5811C13.649 22.0483 12.3966 21.3305 11.1549 20.4279C9.90242 19.5144 8.71526 18.503 7.58257 17.3829C6.46075 16.2519 5.44786 15.0665 4.54387 13.8267C3.65078 12.587 2.93196 11.3473 2.40917 10.1184C1.88639 8.87863 1.625 7.69325 1.625 6.56225C1.625 5.82275 1.75569 5.11588 2.01709 4.46338C2.27848 3.8 2.69236 3.191 3.26959 2.64725C3.96664 1.96212 4.72903 1.625 5.53499 1.625C5.83994 1.625 6.1449 1.69025 6.41719 1.82075C6.70036 1.95125 6.95086 2.147 7.14691 2.42975L9.6737 5.98588C9.86975 6.25775 10.0113 6.50787 10.1093 6.74712C10.2074 6.9755 10.2618 7.20388 10.2618 7.4105C10.2618 7.6715 10.1856 7.9325 10.0331 8.18263C9.89152 8.43275 9.6846 8.69375 9.4232 8.95475L8.59545 9.81388C8.47565 9.9335 8.4212 10.0749 8.4212 10.2489C8.4212 10.3359 8.43209 10.412 8.45387 10.499C8.48654 10.586 8.51922 10.6513 8.541 10.7165C8.73704 11.0754 9.07468 11.543 9.55389 12.1085C10.044 12.674 10.5668 13.2504 11.1331 13.8267C11.7212 14.4031 12.2876 14.936 12.8649 15.4254C13.4313 15.9039 13.8995 16.2301 14.2698 16.4259C14.3243 16.4476 14.3896 16.4803 14.4658 16.5129C14.553 16.5455 14.6402 16.5564 14.7382 16.5564C14.9233 16.5564 15.0649 16.4911 15.1847 16.3715L16.0125 15.5559C16.2847 15.284 16.5461 15.0774 16.7966 14.9469C17.0471 14.7946 17.2977 14.7185 17.5699 14.7185C17.7769 14.7185 17.9947 14.762 18.2343 14.8599C18.4739 14.9578 18.7244 15.0991 18.9967 15.284L22.6017 17.8396C22.8849 18.0354 23.0809 18.2638 23.2008 18.5356C23.3096 18.8075 23.375 19.0794 23.375 19.3839Z" stroke="#21D789" stroke-width="1.5" stroke-miterlimit="10"/>
</svg>
